<svg data-v-423bf9ae="" xmlns="http://www.w3.org/2000/svg" viewBox="0 0 269 90" class="iconLeft"><!----><!----><!----><g data-v-423bf9ae="" id="353c3fdb-b38f-4230-ace6-dab39050b925" fill="black" transform="matrix(4.971002611187209,0,0,4.971002611187209,113.04578670611578,0.1864126006849247)"><path d="M7.71 4.22L7.71 4.22L7.71 4.22Q7.75 4.29 7.77 4.41L7.77 4.41L7.77 4.41Q7.80 4.53 7.80 4.70L7.80 4.70L7.80 4.70Q7.80 5.13 7.68 5.65L7.68 5.65L7.68 5.65Q7.55 6.17 7.33 6.76L7.33 6.76L7.33 6.76Q7.12 7.36 6.80 7.99L6.80 7.99L6.80 7.99Q6.49 8.63 6.11 9.28L6.11 9.28L6.11 9.28Q5.74 9.93 5.30 10.56L5.30 10.56L5.30 10.56Q4.86 11.20 4.39 11.80L4.39 11.80L4.39 11.80Q4.68 12.15 5.01 12.46L5.01 12.46L5.01 12.46Q5.35 12.77 5.71 13.01L5.71 13.01L5.71 13.01Q5.49 13.18 5.29 13.28L5.29 13.28L5.29 13.28Q5.02 13.16 4.68 12.91L4.68 12.91L4.68 12.91Q4.33 12.67 3.96 12.31L3.96 12.31L3.96 12.31Q3.17 13.25 2.36 13.93L2.36 13.93L2.36 13.93Q1.56 14.62 0.77 14.95L0.77 14.95L0.77 14.95Q0.68 14.99 0.53 15.02L0.53 15.02L0.53 15.02Q0.39 15.05 0.15 15.05L0.15 15.05L0.15 15.05Q-0.04 15.05-0.25 14.91L-0.25 14.91L-0.25 14.91Q-0.45 14.77-0.64 14.57L-0.64 14.57L-0.64 14.57Q-0.83 14.37-0.97 14.17L-0.97 14.17L-0.97 14.17Q-1.12 13.97-1.20 13.85L-1.20 13.85L-1.20 13.85Q-1.29 13.72-1.35 13.53L-1.35 13.53L-1.35 13.53Q-1.40 13.34-1.40 13.05L-1.40 13.05L-1.40 13.05Q-1.40 12.70-1.33 12.34L-1.33 12.34L-1.33 12.34Q-1.25 11.98-1.05 11.51L-1.05 11.51L-1.05 11.51Q-0.97 11.48-0.76 11.41L-0.76 11.41L-0.76 11.41Q-0.55 11.35-0.30 11.28L-0.30 11.28L-0.30 11.28Q-0.05 11.21 0.19 11.15L0.19 11.15L0.19 11.15Q0.44 11.09 0.60 11.06L0.60 11.06L0.60 11.06Q0.40 11.37 0.22 11.65L0.22 11.65L0.22 11.65Q0.04 11.94-0.09 12.22L-0.09 12.22L-0.09 12.22Q-0.21 12.50-0.29 12.80L-0.29 12.80L-0.29 12.80Q-0.36 13.10-0.36 13.43L-0.36 13.43L-0.36 13.43Q-0.36 13.56-0.31 13.69L-0.31 13.69L-0.31 13.69Q-0.26 13.82-0.12 13.82L-0.12 13.82L-0.12 13.82Q0.09 13.82 0.41 13.60L0.41 13.60L0.41 13.60Q0.73 13.39 1.12 13.02L1.12 13.02L1.12 13.02Q1.52 12.64 1.96 12.13L1.96 12.13L1.96 12.13Q2.41 11.61 2.87 11.02L2.87 11.02L2.87 11.02Q2.61 10.65 2.39 10.24L2.39 10.24L2.39 10.24Q2.17 9.82 2.01 9.38L2.01 9.38L2.01 9.38Q1.85 8.93 1.76 8.46L1.76 8.46L1.76 8.46Q1.67 7.98 1.67 7.49L1.67 7.49L1.67 7.49Q1.67 6.77 1.90 6.15L1.90 6.15L1.90 6.15Q2.13 5.54 2.51 5.03L2.51 5.03L2.51 5.03Q2.88 4.53 3.37 4.15L3.37 4.15L3.37 4.15Q3.86 3.77 4.38 3.51L4.38 3.51L4.38 3.51Q4.90 3.25 5.41 3.11L5.41 3.11L5.41 3.11Q5.92 2.98 6.34 2.98L6.34 2.98L6.34 2.98Q6.58 2.98 6.69 3.07L6.69 3.07L6.69 3.07Q6.81 3.14 6.97 3.30L6.97 3.30L6.97 3.30Q7.12 3.45 7.28 3.62L7.28 3.62L7.28 3.62Q7.43 3.79 7.55 3.95L7.55 3.95L7.55 3.95Q7.67 4.12 7.71 4.22ZM2.87 8.23L2.87 8.23L2.87 8.23Q2.87 8.69 3.01 9.21L3.01 9.21L3.01 9.21Q3.16 9.74 3.42 10.28L3.42 10.28L3.42 10.28Q3.83 9.71 4.22 9.12L4.22 9.12L4.22 9.12Q4.61 8.52 4.97 7.92L4.97 7.92L4.97 7.92Q5.32 7.33 5.62 6.75L5.62 6.75L5.62 6.75Q5.91 6.18 6.13 5.66L6.13 5.66L6.13 5.66Q6.34 5.15 6.46 4.71L6.46 4.71L6.46 4.71Q6.58 4.27 6.58 3.94L6.58 3.94L6.58 3.94Q6.58 3.85 6.55 3.83L6.55 3.83L6.55 3.83Q6.51 3.81 6.45 3.81L6.45 3.81L6.45 3.81Q6.36 3.81 6.05 3.92L6.05 3.92L6.05 3.92Q5.75 4.03 5.35 4.27L5.35 4.27L5.35 4.27Q4.96 4.50 4.52 4.86L4.52 4.86L4.52 4.86Q4.08 5.22 3.72 5.71L3.72 5.71L3.72 5.71Q3.35 6.21 3.11 6.84L3.11 6.84L3.11 6.84Q2.87 7.46 2.87 8.23ZM6.09 11.79L6.09 11.79L6.09 11.79Q6.25 11.64 6.45 11.45L6.45 11.45L6.45 11.45Q6.65 11.26 6.85 11.03L6.85 11.03L6.85 11.03Q7.05 10.81 7.23 10.55L7.23 10.55L7.23 10.55Q7.40 10.29 7.51 9.99L7.51 9.99L7.51 9.99Q7.53 9.83 7.59 9.66L7.59 9.66L7.59 9.66Q7.65 9.48 7.72 9.34L7.72 9.34L7.72 9.34Q7.79 9.19 7.86 9.10L7.86 9.10L7.86 9.10Q7.93 9.00 7.98 9.00L7.98 9.00L7.98 9.00Q8.07 9.05 8.23 9.18L8.23 9.18L8.23 9.18Q8.39 9.32 8.56 9.47L8.56 9.47L8.56 9.47Q8.72 9.62 8.85 9.74L8.85 9.74L8.85 9.74Q8.98 9.87 8.98 9.90L8.98 9.90L8.98 9.90Q8.89 10.21 8.90 10.47L8.90 10.47L8.90 10.47Q8.90 10.72 8.94 10.96L8.94 10.96L8.94 10.96Q8.98 11.21 9.02 11.49L9.02 11.49L9.02 11.49Q9.06 11.76 9.06 12.13L9.06 12.13L9.06 12.13Q9.06 12.35 8.99 12.63L8.99 12.63L8.99 12.63Q8.92 12.91 8.74 13.14L8.74 13.14L8.74 13.14Q9.09 12.93 9.43 12.68L9.43 12.68L9.43 12.68Q9.78 12.42 10.04 12.20L10.04 12.20L10.04 12.20Q10.36 11.93 10.64 11.66L10.64 11.66L10.95 12.00L10.95 12.00Q10.73 12.21 10.46 12.45L10.46 12.45L10.46 12.45Q10.20 12.69 9.92 12.92L9.92 12.92L9.92 12.92Q9.63 13.15 9.34 13.36L9.34 13.36L9.34 13.36Q9.04 13.58 8.76 13.74L8.76 13.74L8.76 13.74Q8.47 13.90 8.20 14L8.20 14L8.20 14Q7.94 14.10 7.70 14.10L7.70 14.10L7.70 14.10Q7.51 14.10 7.27 14L7.27 14L7.27 14Q7.03 13.90 6.82 13.77L6.82 13.77L6.82 13.77Q6.60 13.63 6.45 13.48L6.45 13.48L6.45 13.48Q6.29 13.33 6.26 13.23L6.26 13.23L6.26 13.23Q6.26 13.21 6.29 13.17L6.29 13.17L6.29 13.17Q6.32 13.13 6.35 13.08L6.35 13.08L6.35 13.08Q6.39 13.03 6.43 12.99L6.43 12.99L6.43 12.99Q6.47 12.95 6.49 12.95L6.49 12.95L6.49 12.95Q6.53 12.95 6.65 13.02L6.65 13.02L6.65 13.02Q6.77 13.08 7.06 13.08L7.06 13.08L7.06 13.08Q7.22 13.08 7.33 13.00L7.33 13.00L7.33 13.00Q7.44 12.91 7.52 12.78L7.52 12.78L7.52 12.78Q7.59 12.64 7.63 12.46L7.63 12.46L7.63 12.46Q7.66 12.28 7.66 12.09L7.66 12.09L7.66 12.09Q7.66 11.80 7.64 11.53L7.64 11.53L7.64 11.53Q7.61 11.26 7.57 11.01L7.57 11.01L7.57 11.01Q7.46 11.14 7.31 11.29L7.31 11.29L7.31 11.29Q7.16 11.44 7.00 11.59L7.00 11.59L7.00 11.59Q6.85 11.74 6.70 11.88L6.70 11.88L6.70 11.88Q6.54 12.02 6.42 12.13L6.42 12.13L6.09 11.79ZM14.48 13.08L14.48 13.08L14.48 13.08Q14.48 13.12 14.52 13.12L14.52 13.12L14.52 13.12Q14.58 13.12 14.72 13.03L14.72 13.03L14.72 13.03Q14.87 12.94 15.05 12.80L15.05 12.80L15.05 12.80Q15.24 12.67 15.45 12.50L15.45 12.50L15.45 12.50Q15.65 12.33 15.85 12.16L15.85 12.16L15.85 12.16Q16.04 12.00 16.19 11.86L16.19 11.86L16.19 11.86Q16.34 11.72 16.43 11.65L16.43 11.65L16.43 11.65Q16.49 11.71 16.58 11.81L16.58 11.81L16.58 11.81Q16.67 11.92 16.75 12.00L16.75 12.00L16.75 12.00Q16.58 12.15 16.35 12.36L16.35 12.36L16.35 12.36Q16.13 12.58 15.86 12.81L15.86 12.81L15.86 12.81Q15.60 13.04 15.32 13.27L15.32 13.27L15.32 13.27Q15.04 13.50 14.77 13.68L14.77 13.68L14.77 13.68Q14.51 13.86 14.27 13.97L14.27 13.97L14.27 13.97Q14.03 14.08 13.85 14.08L13.85 14.08L13.85 14.08Q13.73 14.08 13.58 14.03L13.58 14.03L13.58 14.03Q13.43 13.99 13.31 13.90L13.31 13.90L13.31 13.90Q13.19 13.82 13.10 13.70L13.10 13.70L13.10 13.70Q13.02 13.58 13.02 13.44L13.02 13.44L13.02 13.44Q13.02 13.38 13.02 13.31L13.02 13.31L13.02 13.31Q13.02 13.23 13.03 13.10L13.03 13.10L13.03 13.10Q13.04 12.97 13.08 12.79L13.08 12.79L13.08 12.79Q13.13 12.61 13.21 12.35L13.21 12.35L13.21 12.35Q12.98 12.58 12.68 12.84L12.68 12.84L12.68 12.84Q12.37 13.10 12.04 13.34L12.04 13.34L12.04 13.34Q11.70 13.57 11.36 13.76L11.36 13.76L11.36 13.76Q11.03 13.95 10.74 14.04L10.74 14.04L10.74 14.04Q10.71 14.05 10.68 14.05L10.68 14.05L10.68 14.05Q10.66 14.05 10.64 14.05L10.64 14.05L10.64 14.05Q10.58 14.05 10.46 13.99L10.46 13.99L10.46 13.99Q10.35 13.92 10.24 13.81L10.24 13.81L10.24 13.81Q10.13 13.69 10.05 13.55L10.05 13.55L10.05 13.55Q9.97 13.41 9.97 13.26L9.97 13.26L9.97 13.26Q9.97 13.22 10.01 12.99L10.01 12.99L10.01 12.99Q10.06 12.76 10.21 12.40L10.21 12.40L10.21 12.40Q10.36 12.04 10.66 11.59L10.66 11.59L10.66 11.59Q10.96 11.14 11.48 10.67L11.48 10.67L11.48 10.67Q11.75 10.43 12.06 10.22L12.06 10.22L12.06 10.22Q12.32 10.04 12.65 9.86L12.65 9.86L12.65 9.86Q12.99 9.67 13.36 9.56L13.36 9.56L13.36 9.56Q13.37 9.56 13.38 9.56L13.38 9.56L13.38 9.56Q13.39 9.55 13.41 9.56L13.41 9.56L13.41 9.56Q13.49 9.59 13.61 9.65L13.61 9.65L13.61 9.65Q13.72 9.71 13.83 9.77L13.83 9.77L13.83 9.77Q13.95 9.84 14.03 9.90L14.03 9.90L14.03 9.90Q14.12 9.97 14.14 10.01L14.14 10.01L14.14 10.01Q14.15 10.02 14.14 10.03L14.14 10.03L14.13 10.04L14.13 10.04Q13.82 10.21 13.55 10.41L13.55 10.41L13.55 10.41Q13.28 10.61 13.06 10.79L13.06 10.79L13.06 10.79Q12.82 11.00 12.61 11.20L12.61 11.20L12.61 11.20Q12.11 11.70 11.92 12.06L11.92 12.06L11.92 12.06Q11.72 12.41 11.72 12.57L11.72 12.57L11.72 12.57Q11.72 12.69 11.82 12.69L11.82 12.69L11.82 12.69Q11.92 12.69 12.06 12.61L12.06 12.61L12.06 12.61Q12.21 12.53 12.39 12.40L12.39 12.40L12.39 12.40Q12.58 12.26 12.80 12.08L12.80 12.08L12.80 12.08Q13.02 11.90 13.26 11.70L13.26 11.70L13.26 11.70Q13.47 11.53 13.67 11.33L13.67 11.33L13.67 11.33Q13.84 11.17 14.03 10.96L14.03 10.96L14.03 10.96Q14.21 10.75 14.34 10.53L14.34 10.53L14.34 10.53Q14.34 10.52 14.35 10.51L14.35 10.51L14.35 10.51Q14.36 10.51 14.37 10.51L14.37 10.51L14.37 10.51Q14.44 10.57 14.54 10.69L14.54 10.69L14.54 10.69Q14.64 10.82 14.72 10.97L14.72 10.97L14.72 10.97Q14.80 11.12 14.86 11.26L14.86 11.26L14.86 11.26Q14.92 11.40 14.92 11.48L14.92 11.48L14.92 11.48Q14.76 11.80 14.67 12.06L14.67 12.06L14.67 12.06Q14.59 12.33 14.54 12.52L14.54 12.52L14.54 12.52Q14.50 12.72 14.49 12.86L14.49 12.86L14.49 12.86Q14.48 13.00 14.48 13.08ZM16.86 14.05L16.86 14.05L16.86 14.05Q16.75 14.05 16.60 13.98L16.60 13.98L16.60 13.98Q16.44 13.91 16.30 13.81L16.30 13.81L16.30 13.81Q16.15 13.70 16.05 13.57L16.05 13.57L16.05 13.57Q15.95 13.44 15.95 13.32L15.95 13.32L15.95 13.32Q16.02 13.02 16.13 12.63L16.13 12.63L16.13 12.63Q16.25 12.24 16.38 11.83L16.38 11.83L16.38 11.83Q16.52 11.43 16.66 11.04L16.66 11.04L16.66 11.04Q16.81 10.66 16.93 10.36L16.93 10.36L16.93 10.36Q17.05 10.06 17.14 9.87L17.14 9.87L17.14 9.87Q17.23 9.69 17.25 9.69L17.25 9.69L17.25 9.69Q17.29 9.69 17.46 9.78L17.46 9.78L17.46 9.78Q17.62 9.86 17.80 9.99L17.80 9.99L17.80 9.99Q17.99 10.12 18.13 10.26L18.13 10.26L18.13 10.26Q18.27 10.40 18.27 10.50L18.27 10.50L18.27 10.50Q18.27 10.52 18.27 10.55L18.27 10.55L18.27 10.55Q18.26 10.58 18.25 10.63L18.25 10.63L18.25 10.63Q18.19 10.80 18.10 11.03L18.10 11.03L18.10 11.03Q18.02 11.27 17.92 11.52L17.92 11.52L17.92 11.52Q17.83 11.76 17.73 12.01L17.73 12.01L17.73 12.01Q17.64 12.26 17.56 12.48L17.56 12.48L17.56 12.48Q17.49 12.70 17.44 12.87L17.44 12.87L17.44 12.87Q17.39 13.03 17.39 13.10L17.39 13.10L17.39 13.10Q17.39 13.15 17.43 13.15L17.43 13.15L17.43 13.15Q17.51 13.15 17.66 13.06L17.66 13.06L17.66 13.06Q17.81 12.97 18.00 12.82L18.00 12.82L18.00 12.82Q18.20 12.68 18.41 12.51L18.41 12.51L18.41 12.51Q18.62 12.34 18.82 12.17L18.82 12.17L18.82 12.17Q19.01 12.00 19.17 11.87L19.17 11.87L19.17 11.87Q19.33 11.73 19.41 11.66L19.41 11.66L19.41 11.66Q19.47 11.72 19.55 11.82L19.55 11.82L19.55 11.82Q19.64 11.92 19.71 12.00L19.71 12.00L19.71 12.00Q19.56 12.15 19.34 12.36L19.34 12.36L19.34 12.36Q19.11 12.58 18.85 12.80L18.85 12.80L18.85 12.80Q18.59 13.03 18.30 13.25L18.30 13.25L18.30 13.25Q18.02 13.48 17.75 13.66L17.75 13.66L17.75 13.66Q17.49 13.84 17.25 13.95L17.25 13.95L17.25 13.95Q17.02 14.05 16.86 14.05ZM19.56 7.60L19.56 7.60L19.56 7.60Q19.56 7.63 19.51 7.73L19.51 7.73L19.51 7.73Q19.47 7.84 19.41 7.98L19.41 7.98L19.41 7.98Q19.35 8.12 19.27 8.27L19.27 8.27L19.27 8.27Q19.19 8.43 19.11 8.56L19.11 8.56L19.11 8.56Q19.04 8.69 18.97 8.77L18.97 8.77L18.97 8.77Q18.90 8.86 18.86 8.86L18.86 8.86L18.86 8.86Q18.74 8.85 18.56 8.78L18.56 8.78L18.56 8.78Q18.39 8.72 18.23 8.63L18.23 8.63L18.23 8.63Q18.07 8.54 17.95 8.46L17.95 8.46L17.95 8.46Q17.84 8.38 17.84 8.35L17.84 8.35L17.84 8.35Q17.84 8.20 17.92 7.97L17.92 7.97L17.92 7.97Q18.01 7.75 18.12 7.53L18.12 7.53L18.12 7.53Q18.22 7.31 18.34 7.16L18.34 7.16L18.34 7.16Q18.45 7 18.51 7L18.51 7L18.51 7Q18.63 7 18.81 7.08L18.81 7.08L18.81 7.08Q18.99 7.16 19.16 7.26L19.16 7.26L19.16 7.26Q19.33 7.36 19.44 7.46L19.44 7.46L19.44 7.46Q19.56 7.56 19.56 7.60ZM23.19 13.08L23.19 13.08L23.19 13.08Q23.19 13.12 23.23 13.12L23.23 13.12L23.23 13.12Q23.29 13.12 23.43 13.03L23.43 13.03L23.43 13.03Q23.58 12.94 23.76 12.80L23.76 12.80L23.76 12.80Q23.95 12.67 24.15 12.50L24.15 12.50L24.15 12.50Q24.36 12.33 24.55 12.16L24.55 12.16L24.55 12.16Q24.75 12.00 24.90 11.86L24.90 11.86L24.90 11.86Q25.05 11.72 25.14 11.65L25.14 11.65L25.14 11.65Q25.20 11.71 25.29 11.81L25.29 11.81L25.29 11.81Q25.38 11.92 25.46 12.00L25.46 12.00L25.46 12.00Q25.29 12.15 25.06 12.36L25.06 12.36L25.06 12.36Q24.83 12.58 24.57 12.81L24.57 12.81L24.57 12.81Q24.31 13.04 24.03 13.27L24.03 13.27L24.03 13.27Q23.75 13.50 23.48 13.68L23.48 13.68L23.48 13.68Q23.21 13.86 22.98 13.97L22.98 13.97L22.98 13.97Q22.74 14.08 22.56 14.08L22.56 14.08L22.56 14.08Q22.44 14.08 22.29 14.03L22.29 14.03L22.29 14.03Q22.14 13.99 22.02 13.90L22.02 13.90L22.02 13.90Q21.90 13.82 21.81 13.70L21.81 13.70L21.81 13.70Q21.73 13.58 21.73 13.44L21.73 13.44L21.73 13.44Q21.73 13.38 21.73 13.31L21.73 13.31L21.73 13.31Q21.72 13.23 21.74 13.10L21.74 13.10L21.74 13.10Q21.75 12.97 21.79 12.79L21.79 12.79L21.79 12.79Q21.83 12.61 21.92 12.35L21.92 12.35L21.92 12.35Q21.69 12.58 21.39 12.84L21.39 12.84L21.39 12.84Q21.08 13.10 20.75 13.34L20.75 13.34L20.75 13.34Q20.41 13.57 20.07 13.76L20.07 13.76L20.07 13.76Q19.74 13.95 19.45 14.04L19.45 14.04L19.45 14.04Q19.41 14.05 19.39 14.05L19.39 14.05L19.39 14.05Q19.37 14.05 19.35 14.05L19.35 14.05L19.35 14.05Q19.28 14.05 19.17 13.99L19.17 13.99L19.17 13.99Q19.06 13.92 18.95 13.81L18.95 13.81L18.95 13.81Q18.84 13.69 18.76 13.55L18.76 13.55L18.76 13.55Q18.68 13.41 18.68 13.26L18.68 13.26L18.68 13.26Q18.68 13.22 18.72 12.99L18.72 12.99L18.72 12.99Q18.76 12.76 18.92 12.40L18.92 12.40L18.92 12.40Q19.07 12.04 19.37 11.59L19.37 11.59L19.37 11.59Q19.67 11.14 20.19 10.67L20.19 10.67L20.19 10.67Q20.46 10.43 20.77 10.22L20.77 10.22L20.77 10.22Q21.03 10.04 21.36 9.86L21.36 9.86L21.36 9.86Q21.70 9.67 22.07 9.56L22.07 9.56L22.07 9.56Q22.08 9.56 22.09 9.56L22.09 9.56L22.09 9.56Q22.10 9.55 22.12 9.56L22.12 9.56L22.12 9.56Q22.20 9.59 22.32 9.65L22.32 9.65L22.32 9.65Q22.43 9.71 22.54 9.77L22.54 9.77L22.54 9.77Q22.65 9.84 22.74 9.90L22.74 9.90L22.74 9.90Q22.83 9.97 22.85 10.01L22.85 10.01L22.85 10.01Q22.86 10.02 22.85 10.03L22.85 10.03L22.84 10.04L22.84 10.04Q22.53 10.21 22.26 10.41L22.26 10.41L22.26 10.41Q21.98 10.61 21.77 10.79L21.77 10.79L21.77 10.79Q21.53 11.00 21.31 11.20L21.31 11.20L21.31 11.20Q20.82 11.70 20.62 12.06L20.62 12.06L20.62 12.06Q20.43 12.41 20.43 12.57L20.43 12.57L20.43 12.57Q20.43 12.69 20.53 12.69L20.53 12.69L20.53 12.69Q20.62 12.69 20.77 12.61L20.77 12.61L20.77 12.61Q20.92 12.53 21.10 12.40L21.10 12.40L21.10 12.40Q21.29 12.26 21.51 12.08L21.51 12.08L21.51 12.08Q21.73 11.90 21.97 11.70L21.97 11.70L21.97 11.70Q22.18 11.53 22.38 11.33L22.38 11.33L22.38 11.33Q22.55 11.17 22.74 10.96L22.74 10.96L22.74 10.96Q22.92 10.75 23.05 10.53L23.05 10.53L23.05 10.53Q23.05 10.52 23.06 10.51L23.06 10.51L23.06 10.51Q23.06 10.51 23.08 10.51L23.08 10.51L23.08 10.51Q23.15 10.57 23.25 10.69L23.25 10.69L23.25 10.69Q23.34 10.82 23.43 10.97L23.43 10.97L23.43 10.97Q23.51 11.12 23.57 11.26L23.57 11.26L23.57 11.26Q23.63 11.40 23.63 11.48L23.63 11.48L23.63 11.48Q23.47 11.80 23.38 12.06L23.38 12.06L23.38 12.06Q23.30 12.33 23.25 12.52L23.25 12.52L23.25 12.52Q23.21 12.72 23.20 12.86L23.20 12.86L23.20 12.86Q23.19 13.00 23.19 13.08ZM28.94 13.10L28.94 13.10L28.94 13.10Q29.05 13.10 29.22 13.02L29.22 13.02L29.22 13.02Q29.39 12.93 29.60 12.79L29.60 12.79L29.60 12.79Q29.80 12.65 30.02 12.49L30.02 12.49L30.02 12.49Q30.24 12.32 30.44 12.16L30.44 12.16L30.44 12.16Q30.65 12.00 30.80 11.86L30.80 11.86L30.80 11.86Q30.96 11.73 31.04 11.66L31.04 11.66L31.04 11.66Q31.10 11.72 31.19 11.82L31.19 11.82L31.19 11.82Q31.27 11.92 31.35 12.00L31.35 12.00L31.35 12.00Q31.20 12.15 30.97 12.36L30.97 12.36L30.97 12.36Q30.75 12.56 30.49 12.78L30.49 12.78L30.49 12.78Q30.23 13.00 29.95 13.21L29.95 13.21L29.95 13.21Q29.67 13.43 29.40 13.60L29.40 13.60L29.40 13.60Q29.13 13.77 28.90 13.87L28.90 13.87L28.90 13.87Q28.67 13.97 28.51 13.97L28.51 13.97L28.51 13.97Q28.38 13.97 28.21 13.91L28.21 13.91L28.21 13.91Q28.03 13.84 27.87 13.74L27.87 13.74L27.87 13.74Q27.71 13.64 27.60 13.52L27.60 13.52L27.60 13.52Q27.49 13.41 27.49 13.29L27.49 13.29L27.49 13.29Q27.49 13.00 27.60 12.61L27.60 12.61L27.60 12.61Q27.70 12.22 27.84 11.81L27.84 11.81L27.84 11.81Q27.98 11.40 28.14 11.00L28.14 11.00L28.14 11.00Q28.30 10.60 28.44 10.28L28.44 10.28L28.44 10.28Q28.38 10.29 28.23 10.43L28.23 10.43L28.23 10.43Q28.07 10.57 27.85 10.80L27.85 10.80L27.85 10.80Q27.62 11.04 27.36 11.37L27.36 11.37L27.36 11.37Q27.10 11.70 26.84 12.11L26.84 12.11L26.84 12.11Q26.58 12.52 26.35 13.00L26.35 13.00L26.35 13.00Q26.12 13.47 25.96 14L25.96 14L25.96 14Q25.94 14.08 25.90 14.11L25.90 14.11L25.90 14.11Q25.87 14.14 25.78 14.14L25.78 14.14L25.78 14.14Q25.72 14.14 25.59 14.08L25.59 14.08L25.59 14.08Q25.46 14.02 25.31 13.94L25.31 13.94L25.31 13.94Q25.17 13.85 25.03 13.75L25.03 13.75L25.03 13.75Q24.90 13.66 24.81 13.58L24.81 13.58L24.81 13.58Q24.77 13.54 24.75 13.49L24.75 13.49L24.75 13.49Q24.72 13.45 24.72 13.37L24.72 13.37L24.72 13.37Q24.72 12.92 24.87 12.26L24.87 12.26L24.87 12.26Q25.02 11.61 25.28 10.84L25.28 10.84L25.28 10.84Q25.55 10.07 25.90 9.23L25.90 9.23L25.90 9.23Q26.25 8.39 26.65 7.59L26.65 7.59L26.65 7.59Q27.05 6.78 27.48 6.05L27.48 6.05L27.48 6.05Q27.92 5.33 28.34 4.77L28.34 4.77L28.34 4.77Q28.76 4.21 29.15 3.87L29.15 3.87L29.15 3.87Q29.53 3.53 29.85 3.51L29.85 3.51L29.85 3.51Q30.01 3.56 30.17 3.66L30.17 3.66L30.17 3.66Q30.33 3.77 30.47 3.89L30.47 3.89L30.47 3.89Q30.62 4.01 30.73 4.13L30.73 4.13L30.73 4.13Q30.84 4.25 30.91 4.33L30.91 4.33L30.91 4.33Q30.95 4.38 30.96 4.46L30.96 4.46L30.96 4.46Q30.97 4.53 30.97 4.57L30.97 4.57L30.97 4.57Q30.97 4.81 30.84 5.17L30.84 5.17L30.84 5.17Q30.70 5.54 30.45 5.99L30.45 5.99L30.45 5.99Q30.21 6.44 29.86 6.96L29.86 6.96L29.86 6.96Q29.50 7.47 29.08 8.02L29.08 8.02L29.08 8.02Q28.65 8.56 28.15 9.11L28.15 9.11L28.15 9.11Q27.66 9.67 27.12 10.19L27.12 10.19L27.12 10.19Q26.98 10.55 26.87 10.90L26.87 10.90L26.87 10.90Q27.24 10.52 27.55 10.26L27.55 10.26L27.55 10.26Q27.86 10.00 28.10 9.85L28.10 9.85L28.10 9.85Q28.33 9.69 28.50 9.63L28.50 9.63L28.50 9.63Q28.67 9.56 28.76 9.56L28.76 9.56L28.76 9.56Q28.82 9.56 28.98 9.64L28.98 9.64L28.98 9.64Q29.13 9.72 29.31 9.83L29.31 9.83L29.31 9.83Q29.48 9.94 29.62 10.06L29.62 10.06L29.62 10.06Q29.76 10.17 29.80 10.25L29.80 10.25L29.80 10.25Q29.81 10.28 29.80 10.34L29.80 10.34L29.80 10.34Q29.78 10.40 29.77 10.43L29.77 10.43L29.77 10.43Q29.71 10.62 29.62 10.86L29.62 10.86L29.62 10.86Q29.54 11.10 29.44 11.37L29.44 11.37L29.44 11.37Q29.34 11.64 29.24 11.92L29.24 11.92L29.24 11.92Q29.15 12.19 29.07 12.42L29.07 12.42L29.07 12.42Q29.00 12.65 28.95 12.82L28.95 12.82L28.95 12.82Q28.90 13.00 28.90 13.06L28.90 13.06L28.90 13.06Q28.90 13.10 28.94 13.10ZM28.34 7.23L28.34 7.23L28.34 7.23Q28.18 7.57 28.02 7.92L28.02 7.92L28.02 7.92Q27.87 8.26 27.73 8.61L27.73 8.61L27.73 8.61Q28.18 8.03 28.62 7.42L28.62 7.42L28.62 7.42Q29.05 6.82 29.38 6.26L29.38 6.26L29.38 6.26Q29.72 5.70 29.93 5.23L29.93 5.23L29.93 5.23Q30.13 4.76 30.13 4.44L30.13 4.44L30.13 4.44Q30.13 4.29 30.08 4.29L30.08 4.29L30.08 4.29Q30.00 4.29 29.83 4.51L29.83 4.51L29.83 4.51Q29.66 4.73 29.43 5.12L29.43 5.12L29.43 5.12Q29.20 5.51 28.92 6.05L28.92 6.05L28.92 6.05Q28.64 6.59 28.34 7.23Z"></path></g><!----><g data-v-423bf9ae="" id="cd54672d-07fe-4291-8955-587e58d8a7c6" transform="matrix(1.9565051896858756,0,0,1.9565051896858756,-2.9562029189484846,-0.9561344396610494)" stroke="none" fill="black"><g color="#000" font-weight="400" font-family="sans-serif" white-space="normal"><path style="line-height:normal;text-indent:0;text-align:start;text-decoration-line:none;text-decoration-style:solid;text-decoration-color:#000;text-transform:none;block-progression:tb;isolation:auto;mix-blend-mode:normal" d="M14 23C7.384 23 2 28.383 2 35c0 6.615 5.384 12 12 12s12-5.385 12-12c0-6.616-5.384-12-12-12zm0 2c5.535 0 10 4.465 10 10s-4.465 10-10 10S4 40.534 4 35c0-5.535 4.465-10 10-10z" overflow="visible"></path><path style="line-height:normal;text-indent:0;text-align:start;text-decoration-line:none;text-decoration-style:solid;text-decoration-color:#000;text-transform:none;block-progression:tb;isolation:auto;mix-blend-mode:normal" d="M19 31c-1.645 0-3 1.354-3 3 0 1.645 1.355 3 3 3s3-1.355 3-3c0-1.646-1.355-3-3-3zm0 2c.564 0 1 .435 1 1 0 .564-.436 1-1 1-.564 0-1-.436-1-1 0-.565.436-1 1-1zM12.5 38a2.515 2.515 0 0 0-2.5 2.5c0 1.369 1.131 2.5 2.5 2.5s2.5-1.131 2.5-2.5c0-1.37-1.131-2.5-2.5-2.5zm0 2c.288 0 .5.212.5.5 0 .288-.212.5-.5.5a.486.486 0 0 1-.5-.5c0-.288.212-.5.5-.5zM10.5 28A2.515 2.515 0 0 0 8 30.5c0 1.368 1.131 2.5 2.5 2.5s2.5-1.132 2.5-2.5c0-1.37-1.131-2.5-2.5-2.5zm0 2c.288 0 .5.211.5.5 0 .287-.212.5-.5.5a.486.486 0 0 1-.5-.5c0-.289.212-.5.5-.5z" overflow="visible"></path><path style="line-height:normal;text-indent:0;text-align:start;text-decoration-line:none;text-decoration-style:solid;text-decoration-color:#000;text-transform:none;block-progression:tb;isolation:auto;mix-blend-mode:normal" d="M37.975 1a1 1 0 0 0-.756.375L23.236 18.352a1 1 0 1 0 1.545 1.272L38.764 2.647A1 1 0 0 0 37.974 1zM37.959 8a1 1 0 0 0-.748.385l-11.982 14.98a1 1 0 1 0 1.56 1.25l11.982-14.98a1 1 0 0 0-.812-1.634z" overflow="visible" fill-rule="evenodd"></path><path style="line-height:normal;text-indent:0;text-align:start;text-decoration-line:none;text-decoration-style:solid;text-decoration-color:#000;text-transform:none;block-progression:tb;isolation:auto;mix-blend-mode:normal" d="M17.5 13.999a2.515 2.515 0 0 0-2.5 2.5c0 1.369 1.131 2.5 2.5 2.5s2.5-1.131 2.5-2.5-1.131-2.5-2.5-2.5zm0 2c.288 0 .5.212.5.5 0 .288-.212.5-.5.5a.486.486 0 0 1-.5-.5c0-.288.212-.5.5-.5z" overflow="visible"></path><path style="line-height:normal;text-indent:0;text-align:start;text-decoration-line:none;text-decoration-style:solid;text-decoration-color:#000;text-transform:none;block-progression:tb;isolation:auto;mix-blend-mode:normal" d="M27.994 3.998a1 1 0 0 0-.762.362l-5.982 6.979a1 1 0 1 0 1.52 1.3l5.98-6.978a1 1 0 0 0-.756-1.663zM44.967 7a1 1 0 0 0-.752.38L31.232 23.357a1 1 0 1 0 1.553 1.262L45.768 8.641a1 1 0 0 0-.801-1.64z" overflow="visible" fill-rule="evenodd"></path><path style="line-height:normal;text-indent:0;text-align:start;text-decoration-line:none;text-decoration-style:solid;text-decoration-color:#000;text-transform:none;block-progression:tb;isolation:auto;mix-blend-mode:normal" d="M34.5 27a2.515 2.515 0 0 0-2.5 2.5c0 1.368 1.131 2.5 2.5 2.5s2.5-1.132 2.5-2.5c0-1.37-1.131-2.5-2.5-2.5zm0 2c.288 0 .5.211.5.5 0 .287-.212.5-.5.5a.486.486 0 0 1-.5-.5c0-.289.212-.5.5-.5z" overflow="visible"></path><path style="line-height:normal;text-indent:0;text-align:start;text-decoration-line:none;text-decoration-style:solid;text-decoration-color:#000;text-transform:none;block-progression:tb;isolation:auto;mix-blend-mode:normal" d="M44.994 16.999a1 1 0 0 0-.764.361l-5.98 6.98a1 1 0 1 0 1.52 1.3l5.98-6.979A1 1 0 0 0 44.994 17z" overflow="visible" fill-rule="evenodd"></path></g></g><!----></svg>