<?xml version="1.0"?>
<svg xmlns="http://www.w3.org/2000/svg" height="1201pt" viewBox="0 0 1201 1201" width="1201pt">
  <path d="m0 0h1201v1201h-1201zm621.43 323.69c-14.95 5.01-26.88 16.86-34.25 30.56-10.27 19.43-13.18 42.26-9.97 63.87 2.21 16.31 8.55 32.63 20.53 44.25 9.16 9.01 22.45 14.27 35.32 12.11 6.35-.95 11.89-4.5 16.98-8.2 12.98-9.7 22.1-23.97 26.92-39.32 6.95-22.45 6.5-47.23-1.85-69.24-4.87-12.79-14.1-24.05-26.15-30.67-8.28-4.64-18.37-5.52-27.53-3.36m-146.91 24.07c-9.62 2.58-18.03 8.9-23.78 16.96-7.28 10.2-11.19 22.74-11.25 35.25.34 11.42 1.38 22.96 4.91 33.89 5.03 16.09 13.67 31.26 26.04 42.83 10.1 9.4 22.85 16.23 36.53 18.41 11.67 2 23.06-4.04 31.02-12.18 10.44-10.51 15.02-25.45 16.06-39.92 1.3-16.58-3.55-32.9-10.13-47.93-8.2-18.07-21.8-34.42-40.05-42.89-9.19-3.78-19.42-6.72-29.35-4.42m257.85 84.89c-6.47 1.48-12.34 4.87-17.39 9.1-23.4 18.66-35.77 49.68-32.86 79.33 1.32 12.21 4.45 24.75 12.14 34.59 7.24 9.36 18.78 15.77 30.79 15.33 8.96-.29 17.1-4.73 24.31-9.71 14.76-10.37 25.38-26.06 30.72-43.2 5.88-18.55 6.73-39.24-.41-57.57-2.93-7.99-7.15-15.92-14.11-21.1-9.3-7.1-21.85-9.54-33.19-6.77m-328.82 50.1c-13.07 2.39-23.11 13.35-27.31 25.55-4.87 13.06-4.7 27.65-.33 40.82 5.95 20.06 18 38.57 34.98 50.98 12.52 9.33 28.5 14.69 44.16 12.56 6.51-.74 12.61-3.74 17.54-8.01 8.48-7.34 12.94-18.34 14.57-29.24 2.32-15.37-2.34-30.78-8.76-44.6-7.98-16.66-20.61-31.38-36.82-40.47-11.45-6.37-24.95-9.81-38.03-7.59m179.94 56.99c-16.94 2.06-33.35 9.17-45.96 20.75-23.98 21.26-39.33 50.15-51.77 79.23-3.98 9.74-8.64 19.26-11.39 29.46-3.04 10.08-5.54 20.39-6.25 30.94 8.81-8.6 19.87-14.85 31.81-17.89 13.61-3.42 28.27-2.5 41.38 2.51 14.18 5.57 26.61 15.78 34.28 29 6.67-2.09 13.18-5.35 20.13-6.87 6.29-1.75 12.83-1.94 19.31-2.31 11.22-.91 22.33 1.43 33.46 2.42-1.59-6.66-.3-13.51.79-20.14 3.7-18.76 15.84-35.61 32.33-45.24 12.83-7.71 28.12-10.79 42.97-9.64-11.58-22.12-27.69-41.58-45.65-58.8-24.57-24.7-60.71-38.02-95.44-33.42m129.03 95.91c-21.62 2.44-41.66 15.59-52.67 34.33-10.05 16.4-12.47 36.98-7.44 55.45 7.01 26.77 31.11 48.01 58.55 51.6 16.29 2.34 33.38-1.06 47.45-9.63 16.33-9.94 28.4-26.66 32.59-45.33 3.55-16.06 1.57-33.41-6.09-48.03-5.79-11.26-14.51-21.05-25.25-27.79-13.85-8.84-30.83-12.76-47.14-10.6m-238.01 62.89c-11.56 9.41-19.73 22.87-22.77 37.46-2.64 12.54-1.42 25.8 3.18 37.75-28.3 1.45-56.66.89-84.93 2.74 11.96 1.23 24 .9 35.96 2.13 17.53.72 35 2.46 52.55 2.76 3.79 6.51 8.61 12.37 14.06 17.56-42.51 1.58-85 3.34-127.51 4.99-10.77.47-21.58.54-32.31 1.71 5.45.15 10.9.07 16.35.4 51.32 2.19 102.63 4.39 153.95 6.6 7.5.38 15.08.19 22.49 1.7 22.97 4.02 47.66-5.42 62.06-23.78 11.74-14.53 16.89-34.24 13.41-52.63-2.17-12.88-8.43-25-17.55-34.33-12.03-12.43-29.11-19.85-46.43-19.92-15.33-.27-30.66 5.14-42.51 14.86z" fill="#F0534A"/>
  <path d="m566.3 559.26c12.19-1.62 24.33-3.55 36.4-5.85 5.51 16.1 6.67 33.18 9.46 49.86 16.89.9 33.14-4.62 49.76-6.56 2.89 13.09 5.23 26.33 6.38 39.71-16.19 3.33-33.31 2.55-48.75 9.15 1.35 15.78 5.94 31.18 5.92 47.09-12.57 1.94-25.1 4.07-37.67 5.98-4.41-15.2-5.29-31.11-8.83-46.49-16.55-1.45-32.41 4.35-48.6 6.55-2.26-13.31-4.93-26.58-6.08-40.05 16.18-3.09 33.19-2.8 48.59-9.3-2.83-16.59-7.17-33.13-6.58-50.09z" fill="#F0534A"/>
  <path d="m711.52 657.74c13.46-2.63 27.96.67 38.93 8.92 10.35 7.65 17.53 19.48 19.37 32.23 2.36 14.7-2.53 30.31-12.72 41.15-10.08 10.95-25.31 16.88-40.14 15.64-12.41-.93-24.33-6.78-32.69-15.97-8.32-9.09-13.15-21.35-12.94-33.69.05-13.45 5.89-26.76 15.78-35.88 6.78-6.28 15.33-10.65 24.41-12.4m-11.54 8.37c4.44 6.08 8.76 13.05 8.3 20.89-.18 4.32-4.06 7.98-8.32 8.24-7.51.5-14.39-3.17-20.62-6.9-3.3 7.92-4.41 16.69-3.13 25.18 6.93-2.51 14.8-4.18 21.97-1.64 4.16 1.43 6.75 5.94 5.76 10.26-1.51 7.5-7.26 13.16-12.94 17.86 6.45 5.7 14.58 9.18 22.98 10.81.43-7.28.73-15.3 5.59-21.2 2.64-3.65 8.13-4.39 11.8-1.89 6.27 3.86 9.68 10.73 12.41 17.3 7.32-4.53 13.39-10.98 17.44-18.59-6.85-2.3-14.08-5.22-18.43-11.31-2.81-3.54-2.16-9.13 1.28-12.01 5.71-5.08 13.64-6.14 20.95-6.79-2.1-8.34-6.3-16.14-12.38-22.24-4.45 5.95-9.69 12.18-17.13 14.26-4.3 1.3-8.94-1.3-10.55-5.38-2.88-6.93-1.57-14.71.18-21.76-8.64-.64-17.38 1.08-25.16 4.91z" fill="#F0534A"/>
  <path d="m717.43 692.61c7.09-1.92 15.21 2.91 16.79 10.12 2.03 7.4-3.45 15.83-11.09 16.83-7.3 1.54-15.01-4.12-15.94-11.46-1.19-6.78 3.58-13.87 10.24-15.49m.9 9.6c-2.65 1.6-2.66 6.02.03 7.6 2.43 1.79 6.32.18 6.83-2.77 1.16-3.68-3.79-7.24-6.86-4.83z" fill="#F0534A"/>
  <path d="m508.48 703.64c12.54-2.2 25.92 1.11 35.99 8.91 9.07 6.85 15.44 17.17 17.46 28.36 2.79 14.27-1.76 29.69-11.74 40.24-9.61 10.4-24.16 15.95-38.26 14.57-14.44-1.24-28.01-9.71-35.48-22.12-6.9-11.19-8.63-25.35-4.67-37.88 4.92-16.47 19.71-29.4 36.7-32.08m-11.85 8c4.07 5.67 8.11 12.1 7.77 19.37-.01 4.36-4.01 8.03-8.3 8.02-6.91.31-13.18-3.09-18.92-6.51-3.01 7.46-4.11 15.65-2.93 23.63 6.26-2.17 13.1-3.67 19.65-1.88 4.14 1.01 7.43 5.34 6.46 9.67-1.25 7.26-6.85 12.62-12.21 17.19 6.18 5.22 13.74 8.66 21.7 10.04.2-7.11.67-15.07 5.79-20.56 2.63-3.04 7.5-3.15 10.7-.94 5.71 3.69 8.87 10.01 11.41 16.1 6.86-4.28 12.57-10.31 16.35-17.46-6.54-2.2-13.51-5.01-17.51-10.97-2.48-3.39-1.66-8.53 1.62-11.09 5.34-4.63 12.66-5.65 19.45-6.17-1.86-7.89-5.95-15.14-11.58-20.94-4.09 5.43-8.79 11.02-15.46 13.23-4.01 1.49-8.9-.67-10.44-4.66-2.9-6.58-1.58-13.96.06-20.68-8.12-.56-16.31 1.05-23.61 4.61z" fill="#F0534A"/>
  <path d="m512.46 736.7c6.84-2.21 14.9 2.49 16.34 9.54 1.81 6.99-3.46 14.82-10.66 15.65-6.8 1.33-13.91-3.97-14.77-10.79-1.09-6.19 3.1-12.67 9.09-14.4m1.75 8.63c-2.96 1.34-2.95 6.19-.04 7.57 2.37 1.48 5.64-.25 6.14-2.88.95-3.28-3.19-6.45-6.1-4.69z" fill="#F0534A"/>
  <g fill="${props =&gt; props.theme.color.surface}">
    <path d="m621.43 323.69c9.16-2.16 19.25-1.28 27.53 3.36 12.05 6.62 21.28 17.88 26.15 30.67 8.35 22.01 8.8 46.79 1.85 69.24-4.82 15.35-13.94 29.62-26.92 39.32-5.09 3.7-10.63 7.25-16.98 8.2-12.87 2.16-26.16-3.1-35.32-12.11-11.98-11.62-18.32-27.94-20.53-44.25-3.21-21.61-.3-44.44 9.97-63.87 7.37-13.7 19.3-25.55 34.25-30.56z"/>
    <path d="m474.52 347.76c9.93-2.3 20.16.64 29.35 4.42 18.25 8.47 31.85 24.82 40.05 42.89 6.58 15.03 11.43 31.35 10.13 47.93-1.04 14.47-5.62 29.41-16.06 39.92-7.96 8.14-19.35 14.18-31.02 12.18-13.68-2.18-26.43-9.01-36.53-18.41-12.37-11.57-21.01-26.74-26.04-42.83-3.53-10.93-4.57-22.47-4.91-33.89.06-12.51 3.97-25.05 11.25-35.25 5.75-8.06 14.16-14.38 23.78-16.96z"/>
    <path d="m732.37 432.65c11.34-2.77 23.89-.33 33.19 6.77 6.96 5.18 11.18 13.11 14.11 21.1 7.14 18.33 6.29 39.02.41 57.57-5.34 17.14-15.96 32.83-30.72 43.2-7.21 4.98-15.35 9.42-24.31 9.71-12.01.44-23.55-5.97-30.79-15.33-7.69-9.84-10.82-22.38-12.14-34.59-2.91-29.65 9.46-60.67 32.86-79.33 5.05-4.23 10.92-7.62 17.39-9.1z"/>
    <path d="m403.55 482.75c13.08-2.22 26.58 1.22 38.03 7.59 16.21 9.09 28.84 23.81 36.82 40.47 6.42 13.82 11.08 29.23 8.76 44.6-1.63 10.9-6.09 21.9-14.57 29.24-4.93 4.27-11.03 7.27-17.54 8.01-15.66 2.13-31.64-3.23-44.16-12.56-16.98-12.41-29.03-30.92-34.98-50.98-4.37-13.17-4.54-27.76.33-40.82 4.2-12.2 14.24-23.16 27.31-25.55z"/>
    <path d="m583.49 539.74c34.73-4.6 70.87 8.72 95.44 33.42 17.96 17.22 34.07 36.68 45.65 58.8-14.85-1.15-30.14 1.93-42.97 9.64-16.49 9.63-28.63 26.48-32.33 45.24-1.09 6.63-2.38 13.48-.79 20.14-11.13-.99-22.24-3.33-33.46-2.42-6.48.37-13.02.56-19.31 2.31-6.95 1.52-13.46 4.78-20.13 6.87-7.67-13.22-20.1-23.43-34.28-29-13.11-5.01-27.77-5.93-41.38-2.51-11.94 3.04-23 9.29-31.81 17.89.71-10.55 3.21-20.86 6.25-30.94 2.75-10.2 7.41-19.72 11.39-29.46 12.44-29.08 27.79-57.97 51.77-79.23 12.61-11.58 29.02-18.69 45.96-20.75m-17.19 19.52c-.59 16.96 3.75 33.5 6.58 50.09-15.4 6.5-32.41 6.21-48.59 9.3 1.15 13.47 3.82 26.74 6.08 40.05 16.19-2.2 32.05-8 48.6-6.55 3.54 15.38 4.42 31.29 8.83 46.49 12.57-1.91 25.1-4.04 37.67-5.98.02-15.91-4.57-31.31-5.92-47.09 15.44-6.6 32.56-5.82 48.75-9.15-1.15-13.38-3.49-26.62-6.38-39.71-16.62 1.94-32.87 7.46-49.76 6.56-2.79-16.68-3.95-33.76-9.46-49.86-12.07 2.3-24.21 4.23-36.4 5.85z"/>
    <path d="m712.52 635.65c16.31-2.16 33.29 1.76 47.14 10.6 10.74 6.74 19.46 16.53 25.25 27.79 7.66 14.62 9.64 31.97 6.09 48.03-4.19 18.67-16.26 35.39-32.59 45.33-14.07 8.57-31.16 11.97-47.45 9.63-27.44-3.59-51.54-24.83-58.55-51.6-5.03-18.47-2.61-39.05 7.44-55.45 11.01-18.74 31.05-31.89 52.67-34.33m-1 22.09c-9.08 1.75-17.63 6.12-24.41 12.4-9.89 9.12-15.73 22.43-15.78 35.88-.21 12.34 4.62 24.6 12.94 33.69 8.36 9.19 20.28 15.04 32.69 15.97 14.83 1.24 30.06-4.69 40.14-15.64 10.19-10.84 15.08-26.45 12.72-41.15-1.84-12.75-9.02-24.58-19.37-32.23-10.97-8.25-25.47-11.55-38.93-8.92z"/>
    <path d="m699.98 666.11c7.78-3.83 16.52-5.55 25.16-4.91-1.75 7.05-3.06 14.83-.18 21.76 1.61 4.08 6.25 6.68 10.55 5.38 7.44-2.08 12.68-8.31 17.13-14.26 6.08 6.1 10.28 13.9 12.38 22.24-7.31.65-15.24 1.71-20.95 6.79-3.44 2.88-4.09 8.47-1.28 12.01 4.35 6.09 11.58 9.01 18.43 11.31-4.05 7.61-10.12 14.06-17.44 18.59-2.73-6.57-6.14-13.44-12.41-17.3-3.67-2.5-9.16-1.76-11.8 1.89-4.86 5.9-5.16 13.92-5.59 21.2-8.4-1.63-16.53-5.11-22.98-10.81 5.68-4.7 11.43-10.36 12.94-17.86.99-4.32-1.6-8.83-5.76-10.26-7.17-2.54-15.04-.87-21.97 1.64-1.28-8.49-.17-17.26 3.13-25.18 6.23 3.73 13.11 7.4 20.62 6.9 4.26-.26 8.14-3.92 8.32-8.24.46-7.84-3.86-14.81-8.3-20.89m17.45 26.5c-6.66 1.62-11.43 8.71-10.24 15.49.93 7.34 8.64 13 15.94 11.46 7.64-1 13.12-9.43 11.09-16.83-1.58-7.21-9.7-12.04-16.79-10.12z"/>
    <path d="m474.51 698.54c11.85-9.72 27.18-15.13 42.51-14.86 17.32.07 34.4 7.49 46.43 19.92 9.12 9.33 15.38 21.45 17.55 34.33 3.48 18.39-1.67 38.1-13.41 52.63-14.4 18.36-39.09 27.8-62.06 23.78-7.41-1.51-14.99-1.32-22.49-1.7-51.32-2.21-102.63-4.41-153.95-6.6-5.45-.33-10.9-.25-16.35-.4 10.73-1.17 21.54-1.24 32.31-1.71 42.51-1.65 85-3.41 127.51-4.99-5.45-5.19-10.27-11.05-14.06-17.56-17.55-.3-35.02-2.04-52.55-2.76-11.96-1.23-24-.9-35.96-2.13 28.27-1.85 56.63-1.29 84.93-2.74-4.6-11.95-5.82-25.21-3.18-37.75 3.04-14.59 11.21-28.05 22.77-37.46m33.97 5.1c-16.99 2.68-31.78 15.61-36.7 32.08-3.96 12.53-2.23 26.69 4.67 37.88 7.47 12.41 21.04 20.88 35.48 22.12 14.1 1.38 28.65-4.17 38.26-14.57 9.98-10.55 14.53-25.97 11.74-40.24-2.02-11.19-8.39-21.51-17.46-28.36-10.07-7.8-23.45-11.11-35.99-8.91z"/>
    <path d="m718.33 702.21c3.07-2.41 8.02 1.15 6.86 4.83-.51 2.95-4.4 4.56-6.83 2.77-2.69-1.58-2.68-6-.03-7.6z"/>
    <path d="m496.63 711.64c7.3-3.56 15.49-5.17 23.61-4.61-1.64 6.72-2.96 14.1-.06 20.68 1.54 3.99 6.43 6.15 10.44 4.66 6.67-2.21 11.37-7.8 15.46-13.23 5.63 5.8 9.72 13.05 11.58 20.94-6.79.52-14.11 1.54-19.45 6.17-3.28 2.56-4.1 7.7-1.62 11.09 4 5.96 10.97 8.77 17.51 10.97-3.78 7.15-9.49 13.18-16.35 17.46-2.54-6.09-5.7-12.41-11.41-16.1-3.2-2.21-8.07-2.1-10.7.94-5.12 5.49-5.59 13.45-5.79 20.56-7.96-1.38-15.52-4.82-21.7-10.04 5.36-4.57 10.96-9.93 12.21-17.19.97-4.33-2.32-8.66-6.46-9.67-6.55-1.79-13.39-.29-19.65 1.88-1.18-7.98-.08-16.17 2.93-23.63 5.74 3.42 12.01 6.82 18.92 6.51 4.29.01 8.29-3.66 8.3-8.02.34-7.27-3.7-13.7-7.77-19.37m15.83 25.06c-5.99 1.73-10.18 8.21-9.09 14.4.86 6.82 7.97 12.12 14.77 10.79 7.2-.83 12.47-8.66 10.66-15.65-1.44-7.05-9.5-11.75-16.34-9.54z"/>
    <path d="m514.21 745.33c2.91-1.76 7.05 1.41 6.1 4.69-.5 2.63-3.77 4.36-6.14 2.88-2.91-1.38-2.92-6.23.04-7.57z"/>
  </g>
</svg>
